HIERARCHY
ROOT pelvis
{
  OFFSET 0 100 0
  CHANNELS 6 Xposition Yposition Zposition Zrotation Xrotation Yrotation
  JOINT pelvis_right_femur
  {
    OFFSET -10.78128 -3.44521 -0.5502486
    CHANNELS 3 Zrotation Xrotation Yrotation
    JOINT right_femur_tibia
    {
      OFFSET -0.8047443 -44.0398 -0.1307829
      CHANNELS 3 Zrotation Xrotation Yrotation
      JOINT right_tibia_foot
      {
        OFFSET 3.006224 -47.83518 -5
        CHANNELS 3 Zrotation Xrotation Yrotation
        End Site
        {
          OFFSET 0 -5 15
        }
      }
    }
  }
  JOINT pelvis_left_femur
  {
    OFFSET 10.78128 -3.44521 -0.5502486
    CHANNELS 3 Zrotation Xrotation Yrotation
    JOINT left_femur_tibia
    {
      OFFSET 0.8047443 -44.0398 -0.1307829
      CHANNELS 3 Zrotation Xrotation Yrotation
      JOINT left_tibia_foot
      {
        OFFSET -4.370144 -48.10324 -4.275266
        CHANNELS 3 Zrotation Xrotation Yrotation
        End Site
        {
          OFFSET 0 -5 15
        }
      }
    }
  }
  JOINT pelvis_spine1
  {
    OFFSET 0 6.468898 -3.129235
    CHANNELS 3 Zrotation Xrotation Yrotation
    JOINT spine1
    {
      OFFSET 0 23.15396 4.99043
      CHANNELS 3 Zrotation Xrotation Yrotation
      JOINT spine2
      {
        OFFSET 0 20.79997 -5.064912
        CHANNELS 3 Zrotation Xrotation Yrotation
        JOINT neck
        {
          OFFSET 0 14.38658 9.616178
          CHANNELS 3 Zrotation Xrotation Yrotation
          End Site
          {
            OFFSET 0 20 0
          }
        }
      }
      JOINT right_manubrium
      {
        OFFSET -5.722621 16.35077 3.967754
        CHANNELS 3 Zrotation Xrotation Yrotation
        JOINT right_clavicle
        {
          OFFSET -13.16364 1.694482 -4.693211
          CHANNELS 3 Zrotation Xrotation Yrotation
          JOINT right_humerus
          {
            OFFSET -28.5034 -0.3100689 -2.792744
            CHANNELS 3 Zrotation Xrotation Yrotation
            JOINT right_radius
            {
              OFFSET -25.15693 0.02248979 -1.271978
              CHANNELS 3 Zrotation Xrotation Yrotation
              End Site
              {
                OFFSET -15 0 0
              }
            }
          }
        }
      }
      JOINT left_manubrium
      {
        OFFSET 5.722621 16.35077 3.967754
        CHANNELS 3 Zrotation Xrotation Yrotation
        JOINT left_clavicle
        {
          OFFSET 13.16364 1.694482 -4.693211
          CHANNELS 3 Zrotation Xrotation Yrotation
          JOINT left_humerus
          {
            OFFSET 29.39168 -1.063119 -2.237045
            CHANNELS 3 Zrotation Xrotation Yrotation
            JOINT left_radius
            {
              OFFSET 24.59957 -0.9528479 0.9047498
              CHANNELS 3 Zrotation Xrotation Yrotation
              End Site
              {
                OFFSET 15 -0 -0
              }
            }
          }
        }
      }
    }
  }
}
MOTION
Frames: 19
Frame Time: 0.0416666666667
0 103.5113 0 2.420196 -1.811023 0.2338106 1.133402 -11.36478 7.777431 -0 37.37442 -0 -4.717573 -18.57073 -3.129771 -7.973408 11.42979 -24.01231 -0 4.337632 -0 8.257748 -15.27257 26.03986 -1.694736 -3.086102 5.427639 2.377776 9.371796 -7.669962 1.587438 21.66634 6.043656 2.427 -26.28311 9.695172 5.679997 -19.38101 10.52107 85.94155 33.94223 -19.85537 -0 0 16.26609 -6.17383 7.895807 2.794254 6.726301 -21.20043 -0.1093468 -96.15257 26.99283 24.73088 0 0 -13.2949 9.861025 18.2536 3.503984
0.2559244 103.5207 1.367933 1.935042 -1.02787 0.2853959 2.043157 -13.33739 8.963617 -0 37.60472 -0 -4.156115 -18.01341 -3.551511 -7.68646 11.13252 -23.89019 -0 4.550824 -0 7.767103 -16.04416 26.23543 -1.725372 -3.131667 5.571402 2.178944 9.240199 -7.465669 1.619629 21.942 5.833084 2.28678 -25.97805 9.581743 5.619491 -19.39441 10.32197 85.48459 33.92931 -19.13856 -0 0 16.62099 -6.39108 7.855015 2.836988 6.658519 -21.09371 0.04728125 -96.52641 27.36819 25.17684 0 0 -12.36305 9.593512 18.83932 3.727759
0.519555 103.4106 2.985457 1.029042 -0.5626565 0.2830975 3.446912 -17.54521 8.476703 -0 35.40565 -0 -5.114597 -15.45916 -3.519036 -7.000009 11.37182 -22.89791 -0 5.087747 -0 6.271164 -18.23609 25.41138 -1.555999 -2.888651 5.284199 2.577969 9.500194 -7.912646 1.48188 21.3045 6.349449 2.695418 -26.57559 9.68545 5.668269 -19.23811 10.74128 86.51174 34.05455 -20.69258 -0 0 15.53828 -6.170239 8.054292 2.918691 6.820791 -21.46474 -0.3703891 -95.55541 26.81685 24.1036 0 0 -15.01655 9.77148 17.28849 3.761979
0.7895072 103.2128 4.811263 0.3930846 0.2163211 0.2625791 4.614775 -21.14167 8.573403 -0 33.29708 -0 -5.40435 -13.72381 -3.524257 -6.612799 11.45188 -22.14503 -0 5.326687 -0 5.880506 -19.68571 25.05765 -1.446477 -2.719207 5.144256 2.756872 9.60041 -8.124728 1.392801 20.99508 6.616588 2.921395 -26.8192 9.688078 5.646041 -19.09983 10.9264 87.02455 34.15775 -21.42027 -0 0 14.87933 -6.173632 8.196444 3.038209 6.901755 -21.69569 -0.5983172 -94.98773 26.63515 23.49087 0 0 -16.53973 9.734897 16.43793 3.931905
1.062062 102.8518 6.963801 -0.09418653 1.018001 0.2782601 5.574383 -24.87686 8.110088 -0 29.98164 -0 -5.883497 -11.72301 -3.20379 -6.37632 11.73748 -21.17468 -0 5.568965 -0 6.109493 -20.93096 24.58207 -1.313857 -2.540511 4.974125 2.95748 9.681318 -8.368766 1.311685 20.6503 6.923161 3.168602 -27.13936 9.743143 5.597616 -18.95395 11.11281 87.66338 34.24696 -22.31577 -0 0 14.15381 -6.067396 8.294916 3.099171 7.011714 -21.96528 -0.8582512 -94.38028 26.53647 22.8153 0 0 -18.34312 9.718388 15.53668 4.142917
1.334077 102.3242 9.508005 -0.4788869 1.848318 0.3692698 6.350096 -28.38625 7.51265 -0 26.30114 -0 -6.326272 -9.683658 -2.747571 -6.226864 12.15572 -20.18613 -0 5.992455 -0 6.417675 -21.93638 23.93895 -1.190996 -2.367577 4.827647 3.113782 9.738841 -8.57184 1.229891 20.36826 7.18263 3.385719 -27.3558 9.752943 5.535771 -18.78645 11.25564 88.21314 34.33725 -23.05562 -0 0 13.46626 -6.06884 8.421998 3.202072 7.105556 -22.22785 -1.088772 -93.80889 26.48129 22.17831 0 0 -19.9469 9.627588 14.74049 4.407657
1.601355 101.6412 12.5382 -0.7884799 2.614425 0.5775726 6.906164 -31.54705 6.655554 -0 22.36167 -0 -6.829615 -7.458742 -2.128873 -6.120448 12.76985 -19.10656 -0 6.872731 -0 6.539802 -22.63359 22.91787 -1.068272 -2.201774 4.693788 3.240329 9.782722 -8.754734 1.150513 20.12403 7.413114 3.584821 -27.51091 9.738472 5.467353 -18.60588 11.36901 88.72979 34.41445 -23.73444 -0 0 12.80641 -6.12447 8.564271 3.312015 7.196325 -22.49615 -1.304837 -93.27399 26.4788 21.57378 0 0 -21.43827 9.475427 14.02683 4.73694
1.861471 100.8613 16.13968 -1.077545 3.276753 0.935353 7.301725 -34.10156 5.718338 -0 18.64588 -0 -7.330273 -5.139385 -1.451722 -5.992278 13.53758 -17.96471 -0 8.497944 -0 6.119167 -22.89668 21.38801 -0.9559597 -2.044352 4.577894 3.332131 9.827452 -8.912132 1.068573 19.92758 7.600878 3.759117 -27.56671 9.673737 5.405264 -18.40703 11.45693 89.17953 34.48206 -24.30689 -0 0 12.18136 -6.296947 8.755979 3.459635 7.272668 -22.76237 -1.500438 -92.76765 26.47724 20.99378 0 0 -22.72677 9.252875 13.39842 5.112495
2.11342 100.0893 20.38841 -1.396664 3.770893 1.452912 7.621378 -35.71259 4.864419 -0 15.60562 -0 -7.77591 -2.872629 -0.8276889 -5.774773 14.37124 -16.74917 -0 11.22738 -0 4.878394 -22.50071 19.24723 -0.8567204 -1.89927 4.485687 3.385391 9.880986 -9.0419 0.9856169 19.78203 7.739239 3.905268 -27.5169 9.553823 5.357233 -18.199 11.52205 89.54989 34.53407 -24.7634 -0 0 11.61494 -6.598701 9.002636 3.644756 7.331049 -23.01981 -1.673341 -92.30711 26.47137 20.46008 0 0 -23.76763 8.953773 12.86865 5.538122
2.358749 99.47934 25.3231 -1.799576 4.044593 2.097301 8.011021 -35.98973 4.351137 -0 13.73679 -0 -8.078691 -0.9700654 -0.4238136 -5.394307 15.05409 -15.46712 -0 15.42176 -0 2.682106 -21.16404 16.55939 -0.7788474 -1.769208 4.426318 3.394553 9.951968 -9.136123 0.9019577 19.69425 7.818205 4.017413 -27.34571 9.368762 5.329569 -17.99275 11.56784 89.80949 34.57109 -25.06345 -0 0 11.13603 -7.063815 9.31538 3.884976 7.361384 -23.25335 -1.8186 -91.90197 26.43759 19.99176 0 0 -24.49432 8.577316 12.44285 6.001751
2.601704 99.21511 30.91163 -2.311589 4.045324 2.766969 8.578809 -34.58012 4.367144 -0 13.36348 -0 -8.190754 0.1329505 -0.3983679 -4.802352 15.20749 -14.12194 -0 21.37534 -0 -0.277717 -18.64335 13.64857 -0.7300563 -1.657052 4.414143 3.350901 10.04402 -9.180988 0.8201715 19.67165 7.828842 4.090066 -27.04504 9.115239 5.323288 -17.80912 11.59616 89.91859 34.59526 -25.15315 -0 0 10.7901 -7.718003 9.692279 4.19755 7.352751 -23.44105 -1.929932 -91.57361 26.36791 19.6294 0 0 -24.84359 8.123844 12.12812 6.497293
2.849753 99.45788 37.01561 -2.878954 3.731679 3.284792 9.25096 -31.35193 4.848041 -0 14.35757 -0 -8.188776 -0.004867757 -0.7906379 -4.033379 14.29758 -12.73332 -0 29.14149 -0 -3.392259 -14.98589 11.09237 -0.7199875 -1.564116 4.4675 3.244024 10.1554 -9.155728 0.7434833 19.72153 7.764588 4.118364 -26.61118 8.795007 5.332433 -17.67604 11.60863 89.82546 34.6146 -24.95573 -0 0 10.63215 -8.587513 10.12131 4.609623 7.291407 -23.55228 -1.999804 -91.34242 26.25442 19.42198 0 0 -24.75899 7.601742 11.92111 7.011286
3.113465 100.2674 43.38799 -3.302689 3.069868 3.446819 9.681644 -26.56749 5.359203 -0 15.88693 -0 -8.30196 -1.520972 -1.392392 -3.268459 11.7946 -11.36186 -0 38.33116 -0 -5.809975 -10.77788 9.450314 -0.7572066 -1.489515 4.606589 3.062881 10.276 -9.034395 0.6759743 19.84807 7.625255 4.100403 -26.05103 8.419047 5.341714 -17.6271 11.60587 89.47609 34.64174 -24.38385 -0 0 10.72106 -9.687764 10.57479 5.152387 7.164457 -23.55179 -2.021202 -91.22667 26.09834 19.42454 0 0 -24.214 7.026967 11.80575 7.529414
3.402093 101.5435 49.73726 -3.25414 2.034655 3.147546 9.408689 -20.83817 5.334508 -0 16.63462 -0 -8.697534 -3.932681 -1.792426 -2.798665 7.487591 -10.13715 -0 47.94807 -0 -6.913915 -7.05528 8.905257 -0.8470032 -1.429017 4.847539 2.799717 10.38767 -8.792052 0.6213841 20.04845 7.420826 4.039308 -25.38419 8.008056 5.327009 -17.69381 11.5884 88.83041 34.69082 -23.36141 -0 0 11.10216 -11.01813 11.01263 5.85615 6.963618 -23.40774 -1.990904 -91.23153 25.90714 19.6792 0 0 -23.23721 6.423451 11.74664 8.037176
3.710958 103.0494 55.83956 -2.491073 0.6377043 2.501617 8.232976 -14.76236 4.596534 -0 15.67404 -0 -9.155599 -6.26471 -1.681777 -2.79076 1.728153 -9.182263 -0 56.36744 -0 -6.766189 -4.727407 9.248627 -0.9882767 -1.375025 5.196077 2.454053 10.4689 -8.41409 0.5820857 20.30974 7.172673 3.944452 -24.64227 7.589744 5.260604 -17.89665 11.55772 87.88203 34.77028 -21.85528 -0 0 11.78988 -12.5586 11.39231 6.739695 6.689374 -23.10295 -1.913242 -91.34323 25.69395 20.1983 0 0 -21.9264 5.816585 11.69085 8.528053
4.013086 104.4985 61.60762 -1.164823 -0.998577 1.793472 6.517927 -8.654296 3.592554 -0 13.24616 -0 -9.176969 -7.790676 -1.15915 -3.000839 -4.718859 -8.418707 -0 61.55211 -0 -6.017651 -3.996741 10.23558 -1.173237 -1.318072 5.645316 2.034513 10.50302 -7.902502 0.5586056 20.60984 6.909195 3.829607 -23.8621 7.192141 5.120106 -18.23999 11.51797 86.66441 34.87516 -19.89206 -0 0 12.76296 -14.2758 11.68306 7.803158 6.350832 -22.63983 -1.801105 -91.53206 25.4711 20.95963 0 0 -20.42745 5.225519 11.57758 9.007255
4.28069 105.6181 67.06542 0.1765379 -2.610818 1.242892 5.005643 -2.725726 2.913891 -0 10.44238 -0 -8.549724 -8.670017 -0.6304085 -2.832123 -11.09586 -7.523925 -0 61.68775 -0 -5.270868 -4.365479 11.75444 -1.389758 -1.249707 6.179415 1.557089 10.48417 -7.274438 0.5503797 20.92261 6.658109 3.708762 -23.07869 6.838139 4.895711 -18.71476 11.47615 85.2387 34.98331 -17.54869 -0 0 13.97772 -16.12864 11.87213 9.025747 5.962023 -22.03521 -1.67229 -91.76669 25.24414 21.92128 0 0 -18.88586 4.660182 11.35409 9.487227
4.524762 106.1843 72.29616 0.9798154 -3.886396 0.8550392 4.256904 2.681965 2.703485 -0 8.249057 -0 -7.557072 -9.691706 -0.3610707 -1.811632 -16.84612 -6.202502 -0 56.16582 -0 -4.662232 -5.09892 13.61839 -1.62336 -1.165234 6.776209 1.043921 10.41795 -6.558945 0.5565465 21.22212 6.441208 3.593081 -22.32388 6.544354 4.593154 -19.30082 11.44097 83.68287 35.05606 -14.941 -0 0 15.37906 -18.06152 11.9606 10.36313 5.540167 -21.31421 -1.544622 -92.02619 25.00849 23.03476 0 0 -17.41039 4.125935 10.98861 9.975524
4.80075 106.0857 77.42764 1.042809 -4.586881 0.507916 4.314946 7.191032 2.728502 -0 7.101546 -0 -6.569902 -11.43801 -0.2764805 0.01082691 -21.54065 -4.45524 -0 46.1968 -0 -4.064231 -5.606225 15.43337 -1.856426 -1.065132 7.403645 0.5249697 10.32076 -5.799406 0.5754419 21.48317 6.273109 3.491213 -21.62866 6.320652 4.234823 -19.96199 11.42155 82.09903 35.04234 -12.23559 -0 0 16.89271 -19.98927 11.95878 11.74156 5.108989 -20.51428 -1.434462 -92.29907 24.75 24.23793 0 0 -16.07068 3.628298 10.47603 10.46599
